<svg viewBox="0 0 1080 1080" fill="none" xmlns="http://www.w3.org/2000/svg">      <defs>  <filter id="filter" x="-20%" y="-20%" width="140%" height="140%" filterUnits="objectBoundingBox" primitiveUnits="userSpaceOnUse" color-interpolation-filters="linearRGB">    <feMorphology operator="dilate" radius="20 20" in="SourceAlpha" result="morphology"/>    <feFlood flood-color="#ffffff" flood-opacity="1" result="flood"/>    <feComposite in="flood" in2="morphology" operator="in" result="composite"/>    <feMerge result="merge">          <feMergeNode in="composite" result="mergeNode"/>      <feMergeNode in="SourceGraphic" result="mergeNode1"/>      </feMerge>  </filter></defs>      <g id="notion-avatar" filter="url(#filter)">        <g id="notion-avatar-face" fill="#ffffff" transform="scale(-1,1) translate(-1080, 0)">      <!--?xml version="1.0" encoding="UTF-8"?-->    <title>Face/ 3</title>    <g id="Face/-3" stroke="none" stroke-width="1" fill-rule="evenodd" stroke-linecap="round" stroke-linejoin="round">        <path d="M532,379 C664.54834,379 772,486.45166 772,619 C772,751.54834 704.54834,899 532,899 C402.610491,899 332.317998,816.086314 305.249034,718.717925 C264.225797,715.291578 232,680.909158 232,639 C232,599.134956 261.158843,566.080325 299.312086,560.00055 C325.599297,455.979213 419.809919,379 532,379 Z M295.858895,624.545187 L304.141105,655.454813" id="Path" stroke="#000000" stroke-width="24"/>    </g>    </g><g id="notion-avatar-nose" transform="scale(-1,1) translate(-1080, 0)">      <!--?xml version="1.0" encoding="UTF-8"?-->    <title>Nose/ 3</title>    <g id="Nose/-3" stroke="none" stroke-width="1" fill="none" fill-rule="evenodd" stroke-linecap="round" stroke-linejoin="round">        <path d="M636.843465,595.910607 C654.994141,637.483681 663.279537,666.31686 661.699654,682.410144 C660.11977,698.503428 648.515798,703.474491 626.887739,697.323331" id="Line" stroke="#000000" stroke-width="16" transform="translate(644.388576, 647.892684) rotate(1.032339) translate(-644.388576, -647.892684) "/>    </g>    </g><g id="notion-avatar-mouth" transform="scale(-1,1) translate(-1080, 0)">      <!--?xml version="1.0" encoding="UTF-8"?-->    <title>Mouth/ 0</title>    <g id="Mouth/-0" stroke="none" stroke-width="1" fill="none" fill-rule="evenodd" stroke-linecap="round" stroke-linejoin="round">        <path d="M549,759 C576.33038,765.666667 599.663714,769 619,769 C638.336286,769 655.002953,765.666667 669,759" id="Path" stroke="#000000" stroke-width="16"/>    </g>    </g><g id="notion-avatar-eyes" transform="scale(-1,1) translate(-1080, 0)">      <!--?xml version="1.0" encoding="UTF-8"?-->    <title>Eyes/ 8</title>    <g id="Eyes/-8" stroke="none" stroke-width="1" fill="none" fill-rule="evenodd">        <path d="M570,516 C578.836556,516 586,526.745166 586,540 C586,553.254834 578.836556,564 570,564 C561.163444,564 554,553.254834 554,540 C554,526.745166 561.163444,516 570,516 Z M708,516 C716.836556,516 724,526.745166 724,540 C724,553.254834 716.836556,564 708,564 C699.163444,564 692,553.254834 692,540 C692,526.745166 699.163444,516 708,516 Z" id="Combined-Shape" fill="#000000"/>    </g>    </g><g id="notion-avatar-eyebrows" transform="scale(-1,1) translate(-1080, 0)">      <!--?xml version="1.0" encoding="UTF-8"?-->    <title>Eyebrows/ 4</title>    <g id="Eyebrows/-4" stroke="none" stroke-width="1" fill="none" fill-rule="evenodd" stroke-linecap="round" stroke-linejoin="round">        <g id="Group" transform="translate(525.000000, 504.000000)" stroke="#000000" stroke-width="12">            <path d="M0,12 C12.8888889,4 27.8888889,0 45,0 C62.1111111,0 77.1111111,4 90,12" id="Path"/>            <path d="M138,12 C150.888889,4 165.888889,0 183,0 C200.111111,0 215.111111,4 228,12" id="Path"/>        </g>    </g>    </g><g id="notion-avatar-glasses" transform="scale(-1,1) translate(-1080, 0)">      <!--?xml version="1.0" encoding="UTF-8"?-->    <title>Glasses/ 0</title>    <g id="Glasses/-0" stroke="none" stroke-width="1" fill="none" fill-rule="evenodd"/>    </g><g id="notion-avatar-hair" transform="scale(-1,1) translate(-1080, 0)">      <!--?xml version="1.0" encoding="UTF-8"?-->    <title>Hairstyle/ 6</title>    <g id="Hairstyle/-6" stroke="none" stroke-width="1" fill="none" fill-rule="evenodd" stroke-linecap="round" stroke-linejoin="round">        <path d="M279,719 L312,727 L361,805 C345.104968,795.793015 330.104968,783.793015 316,769 C301.895032,754.206985 289.561699,737.540318 279,719 Z M343,303 C367,222.333333 442.666667,202.333333 570,243 C761,304 782,471 782,496 C782,512.666667 778.333333,533.666667 771,559 L769.377742,556.788495 C742.968282,520.931086 720.842368,498.001587 703,488 C652.173973,459.509334 588.817434,464 549,464 C509.182566,464 428.104379,430.95793 412,428 C409.688334,427.575411 401.590927,431.429106 429,448 L430.116018,448.665115 C436.887544,452.645909 447.182205,457.757538 461,464 C447.596463,464.038164 432.312171,461.806007 415.147123,457.303529 L412.503541,456.598811 C395.711977,452.076418 384.642719,448.384272 379.295767,445.522372 L380.06813,448.7074 C388.26572,482.685415 392.364515,505.362636 392.364515,516.739062 C392.364515,528.232771 383.924355,572.72458 367.044035,650.214489 L366,655 C350.666667,619.666667 338.333333,596 329,584 C315,566 300.202254,555.429256 288,559 L287.245493,559.229979 C278.745889,561.917334 258.53666,571.367129 244,589 C238.749387,595.368958 233.08272,607.368958 227,625 L226.065502,623.594497 C212.50066,603.100798 205.145493,587.902633 204,578 C200.118123,544.441696 214.597053,517.355586 214,510 C210.524124,467.177849 188,403 244,358 L246.2348,356.214 C282.6516,327.271333 314.906667,309.533333 343,303 Z" id="Shape" stroke="#000000" stroke-width="12" fill="#000000"/>    </g>    </g><g id="notion-avatar-accessories" transform="scale(-1,1) translate(-1080, 0)">      <!--?xml version="1.0" encoding="UTF-8"?-->    <title>Accessories/ 0</title>    <g id="Accessories/-0" stroke="none" stroke-width="1" fill="none" fill-rule="evenodd"/>    </g><g id="notion-avatar-details" transform="scale(-1,1) translate(-1080, 0)">      <!--?xml version="1.0" encoding="UTF-8"?-->    <title>Details/ 0</title>    <g id="Details/-0" stroke="none" stroke-width="1" fill="none" fill-rule="evenodd"/>    </g><g id="notion-avatar-beard" transform="scale(-1,1) translate(-1080, 0)">      <g id="Beard/ 16"><g id="Shape"><path fill-rule="evenodd" clip-rule="evenodd" d="M679 848L692 872L690.233 873.596C661.493 899.412 638.416 913.214 621 915C603.584 916.786 577.305 911.7 542.163 899.741L540 899L547 872C571 880 595 882 619 878C642.7 874.05 662.499 864.249 678.398 848.597L679 848ZM645 789C639 793 634.916 796.484 632.747 799.452L632.158 800.248C629.316 804.036 627.875 805 623 805C618.464 805 617.195 804.165 614.325 800.997L612.947 799.452C610.316 796.484 606.333 793 601 789C607.114 790.333 614.447 791 623 791C631.553 791 638.886 790.333 645 789Z" fill="black"/><path d="M679 848L684.276 845.142C683.376 843.481 681.745 842.34 679.876 842.064C678.006 841.788 676.116 842.41 674.774 843.741L679 848ZM692 872L696.022 876.453C698.076 874.597 698.594 871.577 697.276 869.142L692 872ZM690.233 873.596L694.243 878.059C694.247 878.056 694.251 878.052 694.255 878.048L690.233 873.596ZM542.163 899.741L540.218 905.417L540.23 905.421L542.163 899.741ZM540 899L534.192 897.494C533.405 900.53 535.089 903.66 538.056 904.676L540 899ZM547 872L548.897 866.308C547.32 865.782 545.596 865.934 544.136 866.728C542.675 867.521 541.609 868.885 541.192 870.494L547 872ZM619 878L618.014 872.082L619 878ZM678.398 848.597L682.607 852.873C682.613 852.867 682.619 852.862 682.624 852.856L678.398 848.597ZM645 789L648.328 793.992C650.728 792.392 651.65 789.311 650.523 786.656C649.396 784.001 646.54 782.523 643.722 783.138L645 789ZM632.747 799.452L637.571 803.019C637.578 803.01 637.584 803.001 637.591 802.992L632.747 799.452ZM632.158 800.248L636.958 803.848C636.966 803.837 636.975 803.826 636.983 803.815L632.158 800.248ZM614.325 800.997L609.847 804.99C609.857 805.002 609.867 805.014 609.878 805.025L614.325 800.997ZM612.947 799.452L608.457 803.432C608.461 803.436 608.465 803.44 608.468 803.445L612.947 799.452ZM601 789L602.278 783.138C599.521 782.537 596.718 783.938 595.544 786.504C594.37 789.07 595.143 792.107 597.4 793.8L601 789ZM673.724 850.858L686.724 874.858L697.276 869.142L684.276 845.142L673.724 850.858ZM687.978 867.547L686.212 869.143L694.255 878.048L696.022 876.453L687.978 867.547ZM686.224 869.132C672.028 881.884 659.389 891.522 648.291 898.16C637.14 904.828 627.882 908.263 620.388 909.031L621.612 920.969C631.534 919.951 642.522 915.592 654.45 908.459C666.429 901.295 679.699 891.124 694.243 878.059L686.224 869.132ZM620.388 909.031C604.354 910.676 579.135 905.985 544.096 894.061L540.23 905.421C575.475 917.415 602.814 922.897 621.612 920.969L620.388 909.031ZM544.107 894.065L541.944 893.324L538.056 904.676L540.218 905.417L544.107 894.065ZM545.808 900.506L552.808 873.506L541.192 870.494L534.192 897.494L545.808 900.506ZM545.103 877.692C569.993 885.989 594.982 888.086 619.986 883.918L618.014 872.082C595.018 875.914 572.007 874.011 548.897 866.308L545.103 877.692ZM619.986 883.918C644.805 879.782 665.76 869.459 682.607 852.873L674.189 844.321C659.239 859.04 640.595 868.318 618.014 872.082L619.986 883.918ZM682.624 852.856L683.226 852.259L674.774 843.741L674.172 844.338L682.624 852.856ZM641.672 784.008C635.538 788.097 630.719 792.058 627.902 795.911L637.591 802.992C639.112 800.91 642.462 797.903 648.328 793.992L641.672 784.008ZM627.922 795.885L627.334 796.68L636.983 803.815L637.571 803.019L627.922 795.885ZM627.358 796.647C625.965 798.505 625.563 798.726 625.493 798.763C625.482 798.77 625.459 798.781 625.408 798.798C625.353 798.816 625.247 798.847 625.066 798.878C624.676 798.945 624.052 799 623 799V811C625.71 811 628.521 810.765 631.19 809.325C633.77 807.934 635.51 805.779 636.958 803.848L627.358 796.647ZM623 799C622.022 799 621.442 798.953 621.079 798.895C620.76 798.844 620.669 798.794 620.662 798.791C620.57 798.746 620.215 798.562 618.772 796.969L609.878 805.025C611.305 806.6 613.019 808.418 615.413 809.582C617.903 810.794 620.467 811 623 811V799ZM618.803 797.004L617.425 795.458L608.468 803.445L609.847 804.99L618.803 797.004ZM617.436 795.471C614.417 792.066 610.07 788.303 604.6 784.2L597.4 793.8C602.596 797.697 606.214 800.902 608.457 803.432L617.436 795.471ZM599.722 794.862C606.376 796.314 614.162 797 623 797V785C614.732 785 607.851 784.353 602.278 783.138L599.722 794.862ZM623 797C631.838 797 639.624 796.314 646.278 794.862L643.722 783.138C638.149 784.353 631.268 785 623 785V797Z" fill="black"/></g></g>    </g>      </g>      </svg>